<svg width="20" height="20" viewBox="0 0 20 20" fill="none" xmlns="http://www.w3.org/2000/svg">
<circle cx="10" cy="10" r="10" fill="black"/>
<path d="M16.1111 3.0769C16.1112 4.99998 15.3917 9.99998 10.0001 9.99998C4.60838 9.99998 3.07697 14.3445 3.07697 16.1539" stroke="white" stroke-width="2"/>
<path d="M16.9231 16.1111C15 16.1112 10 15.3917 10 10.0001C10 4.60838 5.65553 3.07697 3.84614 3.07697" stroke="white" stroke-width="2"/>
<path d="M10.0159 19.2325C8.656 17.8728 5.62917 13.8285 9.44166 10.016C13.2542 6.20355 11.265 2.04866 9.98557 0.769237" stroke="white" stroke-width="2"/>
<path d="M0.769287 10.016C2.12906 8.65612 6.1733 5.62929 9.98579 9.44179C13.7983 13.2543 17.9532 11.2651 19.2326 9.9857" stroke="white" stroke-width="2"/>
</svg>
