<svg width="24" height="24" viewBox="0 0 24 24" fill="none" xmlns="http://www.w3.org/2000/svg">
<circle cx="12" cy="12" r="12" fill="black"/>
<path d="M10.7388 15.3955H12.8164C12.8164 15.1035 12.8239 14.8452 12.8389 14.6206C12.8538 14.3885 12.8913 14.1714 12.9512 13.9692C13.0111 13.7671 13.1009 13.5687 13.2207 13.374C13.348 13.1794 13.5239 12.9735 13.7485 12.7563C14.1004 12.4419 14.4561 12.1012 14.8154 11.7344C15.1823 11.3675 15.5117 10.9707 15.8037 10.5439C16.0957 10.1247 16.3353 9.6792 16.5225 9.20752C16.7096 8.72835 16.8032 8.21924 16.8032 7.68018C16.8032 7.00635 16.6947 6.40739 16.4775 5.8833C16.2604 5.35921 15.946 4.91374 15.5342 4.54688C15.1224 4.18001 14.617 3.90299 14.0181 3.71582C13.4266 3.52116 12.7528 3.42383 11.9966 3.42383C11.3153 3.42383 10.6789 3.51742 10.0874 3.70459C9.50342 3.88428 8.99805 4.14632 8.57129 4.49072C8.13704 4.84261 7.79264 5.26937 7.53809 5.771C7.28353 6.27262 7.15251 6.83789 7.14502 7.4668H9.22266C9.22266 7.07747 9.30127 6.7443 9.4585 6.46729C9.61572 6.18278 9.82536 5.94694 10.0874 5.75977C10.342 5.58008 10.634 5.44906 10.9634 5.3667C11.3003 5.27686 11.6447 5.23193 11.9966 5.23193C12.4533 5.23193 12.8576 5.29183 13.2095 5.41162C13.5614 5.53141 13.8534 5.70736 14.0854 5.93945C14.2951 6.14909 14.4523 6.40739 14.5571 6.71436C14.6694 7.01383 14.7256 7.35824 14.7256 7.74756C14.7256 8.12191 14.6545 8.47754 14.5122 8.81445C14.37 9.15137 14.1903 9.46956 13.9731 9.76904C13.7485 10.076 13.5015 10.368 13.2319 10.645C12.9699 10.922 12.7116 11.1916 12.457 11.4536C12.0827 11.798 11.7832 12.0975 11.5586 12.3521C11.334 12.5991 11.1618 12.8574 11.042 13.127C10.9222 13.404 10.8436 13.7184 10.8062 14.0703C10.7687 14.4147 10.7463 14.8564 10.7388 15.3955ZM10.5029 18.9106C10.5029 19.255 10.6077 19.5433 10.8174 19.7754C11.0345 20.0075 11.3564 20.1235 11.7832 20.1235C12.21 20.1235 12.5319 20.0075 12.749 19.7754C12.9736 19.5433 13.0859 19.255 13.0859 18.9106C13.0859 18.5513 12.9736 18.2518 12.749 18.0122C12.5319 17.7726 12.21 17.6528 11.7832 17.6528C11.3564 17.6528 11.0345 17.7726 10.8174 18.0122C10.6077 18.2518 10.5029 18.5513 10.5029 18.9106Z" fill="white"/>
</svg>
